<?xml version="1.0" encoding="UTF-8" standalone="no"?><!-- Generator: Gravit.io --><svg xmlns="http://www.w3.org/2000/svg" xmlns:xlink="http://www.w3.org/1999/xlink" style="isolation:isolate" viewBox="-504 1598.051 794.259 325.488" width="794.259pt" height="325.488pt"><g><ellipse vector-effect="non-scaling-stroke" cx="-106.87055999999973" cy="1895.3338812499994" rx="397.1294400000001" ry="28.205220000000054" fill="rgb(230,230,230)"/><path d=" M -417.128 1911.129 C -352.373 1899.603 -281.56 1901.519 -207.281 1911.129 C -241.137 1882.548 -270.356 1853.966 -236.5 1825.385 C -302.54 1839.009 -311.789 1837.63 -385.252 1825.385 C -368.213 1853.966 -400.089 1882.548 -417.128 1911.129 Z " fill="rgb(187,187,191)"/><path d=" M -401.333 1898.935 C -346.326 1889.735 -286.174 1891.265 -223.076 1898.935 C -251.835 1876.121 -276.656 1853.307 -247.897 1830.493 C -303.994 1841.368 -311.852 1840.267 -374.256 1830.493 C -359.782 1853.307 -386.859 1876.121 -401.333 1898.935 Z " fill="rgb(204,204,204)"/><circle vector-effect="non-scaling-stroke" cx="-380.3815099999989" cy="1832.8669012499993" r="29.30908999999997" fill="rgb(47,46,65)"/><path d=" M -247.332 1798.872 L -267.64 1802.257 L -277.794 1831.59 L -248.461 1849.642 L -214.614 1798.872 L -246.204 1798.872 L -247.332 1798.872 L -247.332 1798.872 Z " fill="rgb(160,97,106)"/><circle vector-effect="non-scaling-stroke" cx="-304.87116999999887" cy="1796.615631249998" r="47.38476000000003" fill="rgb(160,97,106)"/><path d=" M -43.127 1624 C -43.127 1624 71.951 1636.41 92.258 1634.154 C 92.258 1634.154 121.592 1629.641 121.592 1629.641 C 121.592 1629.641 135.13 1647.692 128.361 1655.59 C 124.57 1660.14 119.982 1663.963 114.822 1666.872 C 114.822 1666.872 102.412 1663.487 93.386 1666.872 C 93.386 1666.872 -7.024 1684.923 -22.819 1671.384 C -38.614 1657.846 -43.127 1624 -43.127 1624 Z " fill="rgb(47,46,65)"/><path d=" M -51.024 1875.59 C -51.024 1875.59 24.566 1854.154 38.104 1759.385 L 38.104 1750.359 C 38.104 1750.359 53.06 1776.597 58.412 1781.949 C 64.617 1788.154 86.617 1844 85.489 1849.641 C 84.361 1855.282 85.489 1857.539 85.489 1857.539 L 118.207 1854.154 L 118.207 1844 C 118.207 1844 100.72 1791.539 99.592 1779.128 C 99.592 1779.128 56.156 1680.41 56.156 1680.41 C 56.156 1680.41 40.361 1647.692 13.284 1680.41 C 13.284 1680.41 -16.05 1735.692 -16.05 1735.692 L -51.024 1803.385 L -51.024 1875.59 Z " fill="rgb(47,46,65)"/><path d=" M 118.207 1626.256 L 154.31 1613.846 C 154.31 1613.846 188.156 1589.025 180.259 1613.846 C 180.259 1613.846 136.258 1692.82 126.105 1687.179 C 126.105 1687.179 103.739 1667.536 106.46 1665.512 C 109.181 1663.487 127.233 1648.82 118.207 1626.256 Z " fill="rgb(47,46,65)"/><path d=" M 113.843 1837.34 L 142.987 1851.573 C 142.987 1851.573 178.231 1856.995 158.576 1867.161 C 158.576 1867.161 84.699 1888.172 81.988 1878.683 C 81.988 1878.683 80.353 1853.447 83.204 1853.865 C 86.055 1854.284 105.71 1856.317 113.843 1837.34 Z " fill="rgb(47,46,65)"/><path d=" M -36.358 1801.128 C -36.358 1801.128 -21.691 1864.308 -46.511 1877.847 C -71.332 1891.385 -245.076 1893.642 -258.615 1868.821 C -272.153 1844 -265.384 1844 -265.384 1844 L -229.281 1803.385 L -258.615 1801.128 C -258.615 1801.128 -258.615 1792.103 -248.461 1790.975 C -248.461 1790.975 -206.717 1778.564 -179.64 1786.462 C -179.64 1786.462 -136.768 1770.667 -136.768 1770.667 L -36.358 1801.128 Z " fill="rgb(70,107,106)"/><path d=" M -17.178 1603.692 L 2.002 1708.616 L -129.999 1692.821 L -153.691 1598.051 L -17.178 1603.692 L -17.178 1603.692 Z " fill="rgb(63,61,86)"/><path d=" M -21.127 1607.641 L -5.332 1701.282 L -125.486 1687.18 L -148.614 1602 L -21.127 1607.641 L -21.127 1607.641 Z " fill="rgb(255,255,255)"/><path d=" M -2.511 1709.744 L 2.002 1708.616 L 4.258 1713.128 L -31.845 1813.539 L -35.24 1812.241 L -36.357 1805.642 L -2.511 1709.744 L -2.511 1709.744 Z " fill="rgb(128,128,128)"/><path d=" M 2.002 1707.487 L -34.101 1812.411 L -170.614 1792.103 L -129.999 1692.821 L 2.002 1707.487 L 2.002 1707.487 Z " fill="rgb(166,166,170)"/><path d=" M -16.05 1704.103 L -16.05 1709.744 L -116.46 1698.462 L -115.332 1692.821 L -16.05 1704.103 L -16.05 1704.103 Z " fill="rgb(67,67,69)"/><path d=" M -18.306 1715.385 L -34.101 1759.385 L -136.768 1746.975 L -118.717 1705.231 L -18.306 1715.385 L -18.306 1715.385 Z " fill="rgb(67,67,69)"/><path d=" M -146.922 1777.436 L -143.537 1768.41 C -143.537 1768.41 -117.589 1723.282 -104.05 1732.308 C -104.05 1732.308 -132.255 1785.334 -132.255 1785.334 L -145.794 1785.334 L -146.922 1777.436 Z " fill="rgb(160,97,106)"/><path d=" M -61.178 1784.205 L -57.793 1770.667 C -57.793 1770.667 -48.768 1728.923 -64.563 1731.18 C -64.563 1731.18 -84.87 1772.923 -84.87 1772.923 L -83.742 1781.949 L -61.178 1784.205 Z " fill="rgb(160,97,106)"/><path d=" M -88.255 1778.564 C -88.255 1778.564 -58.922 1774.051 -57.793 1780.821 C -57.793 1780.821 -51.024 1889.129 -79.229 1892.513 C -79.229 1892.513 -247.333 1910.565 -232.666 1875.59 C -232.666 1875.59 -195.435 1845.129 -195.435 1845.129 L -99.537 1855.282 L -88.255 1778.564 Z " fill="rgb(70,107,106)"/><path d=" M -176.819 1791.539 L -146.922 1770.667 L -127.178 1785.898 L -151.999 1812.975 L -176.819 1791.539 L -176.819 1791.539 Z " fill="rgb(70,107,106)"/><g opacity="0.2"><path d=" M -96.717 1811.847 L -101.229 1854.719 L -179.076 1850.206 L -111.383 1849.078 L -96.717 1811.847 L -96.717 1811.847 Z " fill="rgb(0,0,0)"/></g><circle vector-effect="non-scaling-stroke" cx="-328.2617599999989" cy="1805.2255912500023" r="56.41042999999996" fill="rgb(47,46,65)"/><path d=" M -64.654 1669.187 C -70.349 1671.476 -75.838 1674.552 -78.079 1683.328 L -78.079 1683.328 L -82.336 1682.296 C -80.819 1675.178 -80.761 1668.224 -82.13 1661.503 L -77.761 1661.273 L -77.763 1661.277 L -77.761 1661.273 C -77.062 1664.984 -76.757 1668.755 -76.855 1672.526 C -73.237 1668.438 -68.68 1666.006 -64.385 1664.565 L -64.654 1669.187 L -64.654 1669.187 Z " fill="rgb(144,67,7)"/><path d=" M -64.62 1669.173 C -63.161 1670.54 -58.005 1675.016 -51.66 1676.554 C -49.647 1677.042 -47.499 1677.238 -45.33 1676.934 C -35.25 1675.552 -28.838 1664.244 -28.565 1663.766 L -27.768 1662.326 L -28.929 1661.161 C -29.317 1660.778 -38.551 1651.611 -48.625 1653.004 C -56.537 1654.101 -62.174 1661.281 -64.367 1664.558 L -64.654 1669.187 C -64.631 1669.177 -64.642 1669.182 -64.654 1669.187 L -64.62 1669.173 Z " fill="rgb(164,199,118)"/><path d=" M -77.761 1661.273 L -77.424 1660.494 C -77.107 1659.759 -69.716 1642.283 -77.087 1630.044 C -81.697 1622.389 -90.811 1618.887 -97.192 1617.313 L -97.192 1617.313 C -101.019 1616.367 -103.867 1616.122 -104.17 1616.103 L -105.721 1615.979 L -106.337 1617.402 C -106.658 1618.146 -114.049 1635.622 -106.67 1647.865 C -102.013 1655.582 -92.768 1659.08 -86.38 1660.629 C -84.721 1661.031 -83.276 1661.303 -82.135 1661.474 C -82.131 1661.493 -82.133 1661.484 -82.135 1661.474 L -77.761 1661.273 L -77.761 1661.273 Z " fill="rgb(164,199,118)"/></g></svg>