<?xml version="1.0" encoding="UTF-8" standalone="no"?><!-- Generator: Gravit.io --><svg xmlns="http://www.w3.org/2000/svg" xmlns:xlink="http://www.w3.org/1999/xlink" style="isolation:isolate" viewBox="670.5 289.149 519 354" width="519pt" height="354pt"><defs><clipPath id="_clipPath_1gKyAklgrqjcuFFKZ1w6C5ZZ1kz7EE2Q"><rect x="670.5" y="289.149" width="519.239" height="354.055"/></clipPath></defs><g clip-path="url(#_clipPath_1gKyAklgrqjcuFFKZ1w6C5ZZ1kz7EE2Q)"><g><path d=" M 986.573 542.863 C 956.926 564.032 929.564 589.449 928.911 643.205 L 928.911 643.205 L 902.914 643.205 C 901.708 600.026 892.32 559.833 875.023 522.979 L 899.902 515.545 L 899.897 515.57 L 899.902 515.545 C 909.127 535.974 916.155 557.295 920.864 579.187 C 936.019 550.544 958.904 530.147 981.661 515.828 L 986.573 542.863 L 986.573 542.863 Z " fill="rgb(144,67,7)"/><path d=" M 986.751 542.734 C 997.073 548.581 1033.076 567.187 1071.824 567.187 C 1084.12 567.187 1096.782 565.319 1108.87 560.531 C 1165.078 538.462 1186.252 464.269 1187.157 461.134 L 1189.739 451.712 L 1181.415 446.617 C 1178.64 444.949 1112.56 404.986 1056.402 427.104 C 1012.298 444.5 989.822 493.793 981.755 515.763 L 986.573 542.863 C 986.692 542.775 986.632 542.819 986.573 542.863 L 986.751 542.734 Z " fill="rgb(164,199,118)"/><path d=" M 899.902 515.545 L 900.758 510.579 C 901.559 505.896 919.756 394.756 860.126 334.469 C 822.832 296.765 765.363 289.306 726.353 289.152 L 726.353 289.152 C 702.958 289.049 686.186 291.616 684.415 291.928 L 675.295 293.381 L 673.732 302.452 C 672.921 307.191 654.724 418.331 714.404 478.629 C 752.058 516.629 810.279 523.88 849.289 523.88 C 859.418 523.88 868.138 523.43 874.954 522.821 C 875.004 522.926 874.979 522.876 874.954 522.821 L 899.902 515.545 L 899.902 515.545 Z " fill="rgb(164,199,118)"/></g></g></svg>